<?xml version="1.0" encoding="UTF-8"?><svg id="Layer_2" xmlns="http://www.w3.org/2000/svg" viewBox="0 0 216.45 29.31"><defs><style>.cls-1{fill:#8ed8f8;}.cls-1,.cls-2{stroke-width:0px;}.cls-2{fill:#fff;}</style></defs><g id="Layer_1-2"><path class="cls-2" d="M7.62.39l4.94,18.68h.08L17.58.39h7.62v28.52h-4.66V6.48h-.08l-5.81,22.44h-4.11L4.74,6.48h-.08v22.44H0V.39h7.62Z"/><path class="cls-2" d="M36.18.39v28.52h-5.45V.39h5.45Z"/><path class="cls-2" d="M57.9.39v4.82h-6.36v23.7h-5.45V5.21h-6.36V.39h18.17Z"/><path class="cls-2" d="M69.16.39c5.73,0,9.56,2.61,9.56,8.53,0,3.55-1.26,6.12-4.31,7.27l5.37,12.72h-5.85l-4.74-11.61h-2.61v11.61h-5.45V.39h8.02ZM69.51,12.8c2.41,0,3.75-1.34,3.75-3.95s-1.34-3.95-3.79-3.95h-2.88v7.9h2.92Z"/><path class="cls-2" d="M98.03.39v4.82h-9.48v6.56h7.23v4.82h-7.23v7.51h9.87v4.82h-15.33V.39h14.93Z"/><path class="cls-1" d="M124.75.4l6.87,28.52h-5.21l-1.38-6h-7.54l-1.54,6h-5.25L117.76.4h6.99ZM121.15,6.56l-2.69,11.53h5.41l-2.65-11.53h-.08Z"/><path class="cls-1" d="M149.47.4v4.82h-6.36v23.7h-5.45V5.21h-6.36V.4h18.17Z"/><path class="cls-1" d="M158.72.4v23.7h8.77v4.82h-14.22V.4h5.45Z"/><path class="cls-1" d="M183.48.4l6.87,28.52h-5.21l-1.38-6h-7.54l-1.54,6h-5.25L176.49.4h6.99ZM179.89,6.56l-2.69,11.53h5.41l-2.65-11.53h-.08Z"/><path class="cls-1" d="M210.81,6.91l-4.9,1.42c-.91-2.69-2.09-3.83-3.99-3.83s-3,1.19-3,3.08c0,2.01,2.61,3.2,5.33,4.66,4.34,2.33,6.83,4.82,6.83,8.93,0,5.25-3.87,8.14-9.05,8.14-4.82,0-7.98-2.77-9.36-8.02l5.37-1.15c.55,3,2.21,4.66,4.23,4.66s3.36-1.38,3.36-3.4c0-2.65-2.69-3.83-6.71-6.08-3.67-2.05-5.45-4.34-5.45-7.35,0-5.25,3.32-7.98,8.57-7.98,4.46,0,7.66,2.45,8.77,6.91Z"/><path class="cls-2" d="M212.91.31v.58h-.77v2.86h-.66V.9h-.77V.31h2.19Z"/><path class="cls-2" d="M214.33.31l.6,2.26h0l.6-2.26h.92v3.45h-.56V1.05h0l-.7,2.71h-.5l-.7-2.71h-.01v2.71h-.56V.31h.92Z"/></g></svg>