<?xml version="1.0" encoding="UTF-8"?><svg id="Layer_2" xmlns="http://www.w3.org/2000/svg" viewBox="0 0 213.21 28.87"><defs><style>.cls-1{fill:#0e2f4f;}.cls-1,.cls-2{stroke-width:0px;}.cls-2{fill:#1bb0e6;}</style></defs><g id="Layer_1-2"><path class="cls-1" d="M7.51.39l4.86,18.4h.08L17.31.39h7.51v28.09h-4.59V6.38h-.08l-5.72,22.1h-4.05L4.67,6.38h-.08v22.1H0V.39h7.51Z"/><path class="cls-1" d="M35.64.39v28.09h-5.37V.39h5.37Z"/><path class="cls-1" d="M57.04.39v4.75h-6.26v23.35h-5.37V5.14h-6.26V.39h17.9Z"/><path class="cls-1" d="M68.12.39c5.64,0,9.42,2.57,9.42,8.4,0,3.5-1.25,6.03-4.24,7.16l5.29,12.53h-5.76l-4.67-11.44h-2.57v11.44h-5.37V.39h7.9ZM68.47,12.61c2.37,0,3.7-1.32,3.7-3.89s-1.32-3.89-3.74-3.89h-2.84v7.78h2.88Z"/><path class="cls-1" d="M96.56.39v4.75h-9.34v6.46h7.12v4.75h-7.12v7.39h9.73v4.75h-15.1V.39h14.71Z"/><path class="cls-2" d="M122.88.39l6.77,28.09h-5.14l-1.36-5.91h-7.43l-1.52,5.91h-5.18L116,.39h6.89ZM119.34,6.46l-2.65,11.36h5.33l-2.61-11.36h-.08Z"/><path class="cls-2" d="M147.24.39v4.75h-6.26v23.35h-5.37V5.14h-6.26V.39h17.9Z"/><path class="cls-2" d="M156.34.39v23.35h8.64v4.75h-14.01V.39h5.37Z"/><path class="cls-2" d="M180.74.39l6.77,28.09h-5.14l-1.36-5.91h-7.43l-1.52,5.91h-5.18L173.85.39h6.89ZM177.2,6.46l-2.65,11.36h5.33l-2.61-11.36h-.08Z"/><path class="cls-2" d="M207.66,6.81l-4.82,1.4c-.89-2.65-2.06-3.77-3.93-3.77s-2.96,1.17-2.96,3.03c0,1.98,2.57,3.15,5.25,4.59,4.28,2.3,6.73,4.75,6.73,8.79,0,5.18-3.81,8.02-8.91,8.02-4.75,0-7.86-2.72-9.22-7.9l5.29-1.13c.54,2.96,2.18,4.59,4.16,4.59s3.31-1.36,3.31-3.35c0-2.61-2.65-3.77-6.61-5.99-3.62-2.02-5.37-4.28-5.37-7.24,0-5.18,3.27-7.86,8.44-7.86,4.4,0,7.55,2.41,8.64,6.81Z"/><path class="cls-1" d="M209.72.31v.57h-.76v2.82h-.65V.88h-.76V.31h2.16Z"/><path class="cls-1" d="M211.12.31l.59,2.22h0l.59-2.22h.91v3.39h-.55V1.03h0l-.69,2.67h-.49l-.69-2.67h-.01v2.67h-.55V.31h.91Z"/></g></svg>