<?xml version="1.0" encoding="UTF-8"?><svg id="Layer_2" xmlns="http://www.w3.org/2000/svg" viewBox="0 0 82.88 82.88"><defs><style>.cls-1{fill:#0e2f4f;}.cls-1,.cls-2{stroke-width:0px;}.cls-2{fill:#1bb0e6;}</style></defs><g id="Layer_1-2"><polygon class="cls-1" points="47.03 17.08 35.85 17.08 19.6 62.78 31.25 58.75 41.47 27.39 52.56 58.75 63.27 62.78 47.03 17.08"/><polygon class="cls-1" points="41.44 54.37 47.17 64.29 35.71 64.29 41.44 54.37"/><path class="cls-2" d="M12.14,12.14C4.77,19.52.46,29.29.02,39.67l-.02.57,5.34-3.08.02-.16C7.39,20.4,20.4,7.39,37,5.36l.16-.02,3.08-5.34-.57.02c-10.38.44-20.15,4.74-27.53,12.12Z"/><path class="cls-2" d="M45.88,5.36c16.6,2.03,29.61,15.04,31.64,31.64l.02.16,5.34,3.08-.02-.57c-.44-10.38-4.74-20.15-12.12-27.53C63.36,4.77,53.59.46,43.21.02l-.57-.02,3.08,5.34.16.02Z"/><path class="cls-2" d="M77.52,45.88c-2.03,16.6-15.04,29.61-31.64,31.64l-.16.02-3.08,5.34.57-.02c10.38-.44,20.15-4.74,27.53-12.12,7.38-7.38,11.68-17.15,12.12-27.53l.02-.57-5.34,3.08-.02.16Z"/><path class="cls-2" d="M37,77.52c-16.6-2.03-29.61-15.04-31.64-31.64l-.02-.16-5.34-3.08.02.57c.44,10.38,4.74,20.15,12.12,27.53,7.38,7.38,17.15,11.68,27.53,12.12l.57.02-3.08-5.34-.16-.02Z"/></g></svg>