<?xml version="1.0" encoding="UTF-8"?><svg id="Layer_2" xmlns="http://www.w3.org/2000/svg" viewBox="0 0 210.09 100"><defs><style>.cls-1{fill:#0d2f4f;}.cls-1,.cls-2,.cls-3{stroke-width:0px;}.cls-2{fill:#0e2f4f;}.cls-3{fill:#1bb0e6;}</style></defs><g id="Layer_1-2"><path class="cls-2" d="M117.82,18.29l4.75,17.98h.08l4.75-17.98h7.34v27.44h-4.49v-21.59h-.08l-5.59,21.59h-3.95l-5.59-21.59h-.08v21.59h-4.49v-27.44h7.34Z"/><path class="cls-2" d="M145.3,18.29v27.44h-5.25v-27.44h5.25Z"/><path class="cls-2" d="M166.2,18.29v4.64h-6.12v22.81h-5.25v-22.81h-6.12v-4.64h17.48Z"/><path class="cls-2" d="M177.03,18.29c5.51,0,9.2,2.51,9.2,8.21,0,3.42-1.22,5.89-4.14,6.99l5.17,12.24h-5.63l-4.56-11.17h-2.51v11.17h-5.25v-27.44h7.72ZM177.38,30.22c2.32,0,3.61-1.29,3.61-3.8s-1.29-3.8-3.65-3.8h-2.77v7.6h2.81Z"/><path class="cls-2" d="M204.82,18.29v4.64h-9.12v6.31h6.96v4.64h-6.96v7.22h9.5v4.64h-14.75v-27.44h14.37Z"/><path class="cls-3" d="M121.85,53.89l6.61,27.44h-5.02l-1.33-5.78h-7.26l-1.48,5.78h-5.06l6.8-27.44h6.73ZM118.39,59.82l-2.58,11.1h5.21l-2.55-11.1h-.08Z"/><path class="cls-3" d="M145.64,53.89v4.64h-6.12v22.81h-5.25v-22.81h-6.12v-4.64h17.48Z"/><path class="cls-3" d="M154.54,53.89v22.81h8.44v4.64h-13.68v-27.44h5.25Z"/><path class="cls-3" d="M178.36,53.89l6.61,27.44h-5.02l-1.33-5.78h-7.26l-1.48,5.78h-5.06l6.8-27.44h6.73ZM174.91,59.82l-2.58,11.1h5.21l-2.55-11.1h-.08Z"/><path class="cls-3" d="M204.67,60.16l-4.71,1.37c-.87-2.58-2.01-3.69-3.84-3.69s-2.89,1.14-2.89,2.96c0,1.94,2.51,3.08,5.13,4.49,4.18,2.24,6.58,4.64,6.58,8.59,0,5.06-3.73,7.83-8.7,7.83-4.64,0-7.68-2.66-9.01-7.72l5.17-1.1c.53,2.89,2.13,4.48,4.07,4.48s3.23-1.33,3.23-3.27c0-2.55-2.58-3.69-6.46-5.85-3.53-1.98-5.25-4.18-5.25-7.07,0-5.06,3.19-7.68,8.25-7.68,4.29,0,7.37,2.36,8.44,6.65Z"/><path class="cls-1" d="M206.68,53.81v.56h-.74v2.75h-.63v-2.75h-.74v-.56h2.11Z"/><path class="cls-1" d="M208.05,53.81l.57,2.17h0l.57-2.17h.89v3.32h-.54v-2.61h0l-.68,2.61h-.48l-.67-2.61h-.01v2.61h-.54v-3.32h.89Z"/><polygon class="cls-2" points="56.75 20.61 43.25 20.61 23.65 75.75 37.7 70.89 50.04 33.04 63.41 70.89 76.35 75.75 56.75 20.61"/><polygon class="cls-2" points="50 65.6 56.91 77.57 43.09 77.57 50 65.6"/><path class="cls-3" d="M14.65,14.65C5.75,23.55.56,35.34.03,47.86l-.03.69,6.44-3.72.02-.19C8.91,24.61,24.61,8.91,44.64,6.46l.19-.02,3.72-6.44-.69.03c-12.52.53-24.31,5.72-33.21,14.62Z"/><path class="cls-3" d="M55.36,6.46c20.03,2.45,35.73,18.15,38.18,38.18l.02.19,6.44,3.72-.03-.69c-.53-12.52-5.72-24.31-14.62-33.21C76.45,5.75,64.66.56,52.14.03l-.69-.03,3.72,6.44.19.02Z"/><path class="cls-3" d="M93.54,55.36c-2.45,20.03-18.15,35.73-38.18,38.18l-.19.02-3.72,6.44.69-.03c12.52-.53,24.31-5.72,33.21-14.62,8.9-8.9,14.09-20.69,14.62-33.21l.03-.69-6.44,3.72-.02.19Z"/><path class="cls-3" d="M44.64,93.54c-20.03-2.45-35.73-18.15-38.18-38.18l-.02-.19-6.44-3.72.03.69c.53,12.52,5.72,24.31,14.62,33.21,8.9,8.9,20.69,14.09,33.21,14.62l.69.03-3.72-6.44-.19-.02Z"/></g></svg>