<svg xmlns="http://www.w3.org/2000/svg" width="145.607" height="145.608" viewBox="0 0 145.607 145.608">
  <g id="Community_Icon" data-name="Community Icon" transform="translate(0.75 0.75)">
    <path id="noun-community-8010644" d="M264.857,192.888A25.321,25.321,0,0,0,234.889,167.9a48.9,48.9,0,0,0-17.083-17.083,25.422,25.422,0,1,0-49.984,0A48.9,48.9,0,0,0,150.739,167.9a25.719,25.719,0,0,0-4.567-.43A25.388,25.388,0,0,0,129.3,211.854a1.08,1.08,0,0,0,.268.233,25.255,25.255,0,0,0,16.6,6.223,25.719,25.719,0,0,0,4.567-.43,48.971,48.971,0,0,0,17.083,17.106,25.127,25.127,0,0,0,8.119,23.512,1.08,1.08,0,0,0,.268.233,25.245,25.245,0,0,0,33.2,0,2.042,2.042,0,0,0,.268-.233,25.128,25.128,0,0,0,8.119-23.512,48.848,48.848,0,0,0,17.106-17.106,25.014,25.014,0,0,0,21.129-5.793,2.036,2.036,0,0,0,.268-.233,25.313,25.313,0,0,0,8.57-18.966Zm-4.384,0a20.881,20.881,0,0,1-4.095,12.411,14.607,14.607,0,0,0-10.142-10.283,10.537,10.537,0,1,0-13.6,0A14.594,14.594,0,0,0,222.493,205.3a21.018,21.018,0,1,1,37.98-12.411Zm-21.038.31a6.153,6.153,0,1,1,6.153-6.153A6.163,6.163,0,0,1,239.436,193.2Zm-46.622-67.969a20.977,20.977,0,0,1,16.943,33.428,14.607,14.607,0,0,0-10.142-10.283,10.537,10.537,0,1,0-13.6,0,14.594,14.594,0,0,0-10.142,10.283,20.977,20.977,0,0,1,16.943-33.428Zm0,21.341a6.153,6.153,0,1,1,6.153-6.153A6.163,6.163,0,0,1,192.814,146.571Zm2.89,5.667a10.191,10.191,0,0,1,10.177,10.177v.324a20.916,20.916,0,0,1-26.091,0V162.4a10.191,10.191,0,0,1,10.177-10.177H195.7Zm-70.549,40.651A21.027,21.027,0,1,1,163.113,205.3a14.607,14.607,0,0,0-10.142-10.283,10.537,10.537,0,1,0-13.6,0A14.594,14.594,0,0,0,129.227,205.3a21.006,21.006,0,0,1-4.074-12.411Zm21.038.31a6.153,6.153,0,1,1,6.153-6.153A6.163,6.163,0,0,1,146.192,193.2Zm-13.06,16.147v-.31a10.191,10.191,0,0,1,10.177-10.177h5.758a10.191,10.191,0,0,1,10.177,10.177v.31a20.946,20.946,0,0,1-26.112,0Zm46.637,46.637v-.324a10.191,10.191,0,0,1,10.177-10.177H195.7a10.191,10.191,0,0,1,10.177,10.177v.324a20.946,20.946,0,0,1-26.112,0Zm13.046-16.16a6.153,6.153,0,1,1,6.153-6.153A6.163,6.163,0,0,1,192.815,239.822Zm16.943,12.1a14.607,14.607,0,0,0-10.142-10.283,10.537,10.537,0,1,0-13.6,0,14.594,14.594,0,0,0-10.142,10.283,21.038,21.038,0,1,1,33.886,0ZM216.58,230.6a25.369,25.369,0,0,0-47.53,0,44.225,44.225,0,0,1-13.927-13.948,25.026,25.026,0,0,0,7.668-4.567,2.039,2.039,0,0,0,.268-.233,25.353,25.353,0,0,0-7.922-42.731,44.233,44.233,0,0,1,13.927-13.927,25.461,25.461,0,0,0,6.893,10.029,1.08,1.08,0,0,0,.268.233,25.245,25.245,0,0,0,33.2,0,2.039,2.039,0,0,0,.268-.233,25.36,25.36,0,0,0,6.893-10.029,44.667,44.667,0,0,1,13.948,13.927,25.346,25.346,0,0,0-7.943,42.731,1.08,1.08,0,0,0,.268.233,25.524,25.524,0,0,0,7.689,4.567A44.557,44.557,0,0,1,216.58,230.6Zm9.811-21.248v-.31a10.191,10.191,0,0,1,10.177-10.177h5.758A10.191,10.191,0,0,1,252.5,209.039v.31a20.946,20.946,0,0,1-26.112,0Z" transform="translate(-120.75 -120.845)" fill="#0e2f4f" stroke="#0e2f4f" stroke-width="1.5"/>
  </g>
</svg>
