<svg xmlns="http://www.w3.org/2000/svg" width="145.619" height="145.608" viewBox="0 0 145.619 145.608">
  <g id="Learning_Icon" data-name="Learning Icon" transform="translate(0.75 0.75)">
    <path id="noun-learning-6470275" d="M93.15,21.141a2.037,2.037,0,0,0-2.042,2.042V29.31a2.042,2.042,0,1,0,4.084,0V23.183a2.037,2.037,0,0,0-2.042-2.042ZM64.735,29.3a2,2,0,0,0-1.272.533,2.046,2.046,0,0,0-.13,2.883l4.132,4.529a2.04,2.04,0,0,0,2.883.127,2.046,2.046,0,0,0,.127-2.883l-4.132-4.526a2.043,2.043,0,0,0-1.609-.663Zm56.623.016a2.031,2.031,0,0,0-1.413.659L115.813,34.5a2.046,2.046,0,0,0,.127,2.883,2.1,2.1,0,0,0,1.379.538,2,2,0,0,0,1.5-.666l4.13-4.529a2.037,2.037,0,0,0-1.6-3.412ZM94.412,35.89a32.32,32.32,0,0,0-3.246.036,31.4,31.4,0,0,0-28,22.6H36.96a5.548,5.548,0,0,0-5.543,5.543v3.246H26.633a5.548,5.548,0,0,0-5.543,5.543v76.518a5.548,5.548,0,0,0,5.543,5.543H74.3c2.742,0,4.751,1.75,5.976,5.2a7.663,7.663,0,0,0,7.2,5.123H98.962a7.667,7.667,0,0,0,7.141-4.982c1.319-3.548,3.315-5.356,5.917-5.356h47.647a5.548,5.548,0,0,0,5.543-5.543v-76.5a5.548,5.548,0,0,0-5.543-5.543h-4.784V64.086a5.548,5.548,0,0,0-5.543-5.543H123.128a31.377,31.377,0,0,0-8.622-14.215,30.9,30.9,0,0,0-20.094-8.438Zm-1.24,4.062a27.133,27.133,0,0,1,26.4,20.983c.012.058.022.106.034.164a27.373,27.373,0,0,1,.654,5.962,26.95,26.95,0,0,1-7.528,18.731A13.261,13.261,0,0,0,108.938,95a2.487,2.487,0,0,1-2.484,2.487h-5.905V79.3h2.368a6.57,6.57,0,1,0-6.569-6.569v2.484h-6.5V72.734A6.57,6.57,0,1,0,83.277,79.3h2.487V97.5H79.858a2.485,2.485,0,0,1-2.484-2.484,13.17,13.17,0,0,0-3.736-9.149,26.939,26.939,0,0,1-7.574-19.546,27.248,27.248,0,0,1,25.358-26.3c.583-.035,1.167-.059,1.75-.059ZM36.961,62.627H62.3a30.238,30.238,0,0,0-.317,3.581A30.99,30.99,0,0,0,70.7,88.7a9.1,9.1,0,0,1,2.592,6.313A6.58,6.58,0,0,0,77.15,101v13.082a6.154,6.154,0,0,0,5.251,6.067,8.286,8.286,0,0,0,8.228,7.41h5.042a8.286,8.286,0,0,0,8.228-7.41,6.154,6.154,0,0,0,5.251-6.067V100.984a6.6,6.6,0,0,0,3.861-6.01,9.2,9.2,0,0,1,2.662-6.348A30.993,30.993,0,0,0,124,62.639H149.34A1.459,1.459,0,0,1,150.8,64.1v75.478a1.459,1.459,0,0,1-1.459,1.459H108.507a17.31,17.31,0,0,0-14.879,8.344l-.478.757-.478-.781a17.323,17.323,0,0,0-14.879-8.342H36.96a1.459,1.459,0,0,1-1.459-1.459V64.086a1.459,1.459,0,0,1,1.459-1.459Zm46.316,7.619a2.5,2.5,0,0,1,2.487,2.487v2.484H83.277a2.485,2.485,0,0,1,0-4.971Zm19.64,0a2.485,2.485,0,1,1,0,4.971h-2.484V72.733A2.5,2.5,0,0,1,102.917,70.247Zm51.966,1.144h4.784a1.459,1.459,0,0,1,1.459,1.459v76.529a1.459,1.459,0,0,1-1.459,1.459H112c-4.364,0-7.818,2.846-9.744,8.016a3.554,3.554,0,0,1-3.314,2.323H87.455a3.58,3.58,0,0,1-3.348-2.416c-1.809-5.111-5.3-7.923-9.826-7.923H26.634a1.459,1.459,0,0,1-1.459-1.459V72.872a1.459,1.459,0,0,1,1.459-1.459h4.784v68.15a5.548,5.548,0,0,0,5.543,5.543H77.794a13.29,13.29,0,0,1,11.4,6.382l2.218,3.631a.155.155,0,0,1,.034.046,2.546,2.546,0,0,0,.281.339l.036.034a2.567,2.567,0,0,0,.337.258.046.046,0,0,0,.036.012,2.242,2.242,0,0,0,.349.15.822.822,0,0,0,.153.059,2.049,2.049,0,0,0,.467.059c.023,0,.034.012.057.012s.036-.012.059-.012a1.932,1.932,0,0,0,.454-.059.994.994,0,0,0,.164-.07,1.768,1.768,0,0,0,.339-.15.041.041,0,0,1,.034-.012,2.347,2.347,0,0,0,.337-.258c.012-.012.025-.022.025-.034a2.058,2.058,0,0,0,.281-.351.168.168,0,0,0,.034-.048l2.218-3.628a13.265,13.265,0,0,1,11.4-6.382h40.832a5.548,5.548,0,0,0,5.543-5.543ZM89.848,79.3h6.6V97.5h-6.6Zm-8.613,22.277h23.831v4.8H81.235Zm.025,8.88h23.83v3.608a2.117,2.117,0,0,1-2.1,2.076H83.337a2.08,2.08,0,0,1-2.076-2.076Zm5.274,9.769H99.745a4.193,4.193,0,0,1-4.084,3.232H90.619a4.2,4.2,0,0,1-4.084-3.232Z" transform="translate(-21.09 -21.141)" fill="#0e2f4f" stroke="#0e2f4f" stroke-width="1.5"/>
  </g>
</svg>
