<svg id="Recognition_Icon" data-name="Recognition Icon" xmlns="http://www.w3.org/2000/svg" width="144.069" height="144.108" viewBox="0 0 144.069 144.108">
  <path id="noun-check-badge-1018960" d="M287.839,215.961a4.5,4.5,0,0,0-1.9.633l-14.568,8.3-16.96.141a4.506,4.506,0,0,0-3.871,2.252l-8.445,14.5-14.638,8.586a4.506,4.506,0,0,0-2.252,3.871l-.07,16.82-8.375,14.708a4.506,4.506,0,0,0,0,4.5l8.3,14.568.141,16.96a4.506,4.506,0,0,0,2.252,3.871l14.5,8.445,8.586,14.638a4.506,4.506,0,0,0,3.871,2.252l16.82.07,14.708,8.375a4.506,4.506,0,0,0,4.5,0l14.568-8.3,16.961-.141a4.506,4.506,0,0,0,3.871-2.252l8.445-14.5,14.638-8.586a4.506,4.506,0,0,0,2.252-3.871l.07-16.82,8.375-14.708a4.506,4.506,0,0,0,0-4.5l-8.3-14.568-.141-16.961a4.506,4.506,0,0,0-2.252-3.871l-14.5-8.445-8.586-14.638a4.506,4.506,0,0,0-3.871-2.252l-16.82-.07-14.708-8.375A4.5,4.5,0,0,0,287.839,215.961Zm.352,9.641,13.512,7.741a4.5,4.5,0,0,0,2.252.633l15.412.07,7.882,13.442a4.508,4.508,0,0,0,1.619,1.619l13.3,7.741.141,15.553a4.5,4.5,0,0,0,.563,2.252l7.741,13.371-7.741,13.512a4.5,4.5,0,0,0-.633,2.252l-.07,15.412-13.442,7.882a4.508,4.508,0,0,0-1.619,1.619L319.367,342l-15.553.141a4.5,4.5,0,0,0-2.252.563l-13.371,7.741-13.512-7.741a4.5,4.5,0,0,0-2.252-.633L257.014,342l-7.882-13.442a4.507,4.507,0,0,0-1.619-1.619l-13.3-7.741-.141-15.553a4.5,4.5,0,0,0-.563-2.252l-7.741-13.371,7.741-13.512a4.5,4.5,0,0,0,.633-2.252l.07-15.412,13.442-7.882a4.507,4.507,0,0,0,1.619-1.619l7.741-13.3,15.553-.141a4.5,4.5,0,0,0,2.252-.563Zm0,12.879a49.544,49.544,0,1,0,49.544,49.544A49.613,49.613,0,0,0,288.19,238.481Zm0,9.008a40.536,40.536,0,1,1-40.536,40.536A40.468,40.468,0,0,1,288.19,247.489Zm22.449,20.2a4.5,4.5,0,0,0-3.1,1.408L278.9,297.735l-10.345-8.656a4.5,4.5,0,1,0-5.771,6.9l13.512,11.26a4.505,4.505,0,0,0,6.052-.282l31.528-31.528a4.5,4.5,0,0,0-3.237-7.741Z" transform="translate(-216.156 -215.952)" fill="#0e2f4f"/>
</svg>
