<?xml version="1.0" standalone="yes"?><svg xmlns="http://www.w3.org/2000/svg" id="Layer_1" data-name="Layer 1" viewBox="240 0 240 60" style="zoom: 1;" width="200%" height="15(null)"><path d="M316.57,25,328,65.17h-7.62l-2.23-8.67H305.45l-2.39,8.67h-7.62L307,25Zm-4.73,7.73-4.73,17.46h9.35L312,32.7Z" transform="translate(-10 -14.45)"></path><path d="M353.55,25v6.45H343V65.17h-7.67V31.42H324.86V25Z" transform="translate(-10 -14.45)"></path><path d="M364.84,25V58.72H382.3v6.45H357.17V25Z" transform="translate(-10 -14.45)"></path><path d="M405.51,25l11.4,40.2H409.3l-2.23-8.67H394.39L392,65.17h-7.61L396,25Zm-4.72,7.73-4.73,17.46h9.34L400.9,32.7Z" transform="translate(-10 -14.45)"></path><path d="M446.37,33.53l-7,2.17c-1.27-3.39-3.83-5.23-7.17-5.23-3.61,0-5.73,1.56-5.73,4.45s3.9,4.51,8.46,6.17c9.89,3.62,12.23,7.57,12.23,12.35,0,8-5.06,12.29-14,12.29-6.73,0-12.85-3.78-15.07-9.51l6.34-2.78c2,4.39,4.78,6.28,8.73,6.28,4.39,0,6.78-1.89,6.78-5.28s-3.5-5.06-9.9-7.56c-6.17-2.39-10.78-5.4-10.78-11.18,0-6.73,5.56-11.23,12.95-11.23C438.7,24.47,444,27.8,446.37,33.53Z" transform="translate(-10 -14.45)"></path></svg>