<?xml version="1.0" standalone="yes"?><svg xmlns="http://www.w3.org/2000/svg" cursor="crosshair" id="Layer_1" data-name="Layer 1" viewBox="0 0 437.15 60"><rect fill="#FFFFFF" x="248.9" width="1.51" height="60"></rect><rect fill="#FFFFFF" x="248.91" width="1.51" height="60"></rect><polygon fill="#FFFFFF" points="52.12,0 37.57,37.5 22.87,0 11.24,0 0,60 11.99,60 19.11,22.43 32.99,60 42,60 55.88,22.43 63,60 75.36,60 63.75,0 52.12,0 "></polygon><rect fill="#FFFFFF" x="78.36" width="11.24" height="60"></rect><polygon fill="#FFFFFF" points="93.28 0 93.28 9.74 106.49 9.74 106.49 60 117.65 60 117.65 9.74 130.85 9.74 130.85 0 93.28 0"></polygon><path fill="#FFFFFF" d="M155.78,74.45H144.54v-60h26.69a22.72,22.72,0,0,1,5.4,1.06,18.07,18.07,0,0,1,7.51,5q3.74,3.9,3.73,11.24,0,7.65-4,11.55a18.38,18.38,0,0,1-8.17,5,26,26,0,0,1-6.08,1.13l20,25.05H176l-18.3-24.76V38.89l11.17-.07h.61a7.77,7.77,0,0,0,4.65-1.72,6.41,6.41,0,0,0,2.54-5.4,6.87,6.87,0,0,0-2.1-5.17,8.18,8.18,0,0,0-5.7-2H155.78Z" transform="translate(-10 -14.45)"></path><polygon fill="#FFFFFF" points="179.54,0 214.25,0 214.25,9.74 190.78,9.74 190.78,25.12 214.03,25.12 214.03,34.86 190.78,34.86 190.78,50.26 214.25,50.26 214.25,60 179.54,60 179.54,0 "></polygon><path fill="#FFFFFF" d="M316.57,25,328,65.17h-7.62l-2.23-8.67H305.45l-2.39,8.67h-7.62L307,25Zm-4.73,7.73-4.73,17.46h9.35L312,32.7Z" transform="translate(-10 -14.45)"></path><path fill="#FFFFFF" d="M353.55,25v6.45H343V65.17h-7.67V31.42H324.86V25Z" transform="translate(-10 -14.45)"></path><path fill="#FFFFFF" d="M364.84,25V58.72H382.3v6.45H357.17V25Z" transform="translate(-10 -14.45)"></path><path fill="#FFFFFF" d="M405.51,25l11.4,40.2H409.3l-2.23-8.67H394.39L392,65.17h-7.61L396,25Zm-4.72,7.73-4.73,17.46h9.34L400.9,32.7Z" transform="translate(-10 -14.45)"></path><path fill="#FFFFFF" d="M446.37,33.53l-7,2.17c-1.27-3.39-3.83-5.23-7.17-5.23-3.61,0-5.73,1.56-5.73,4.45s3.9,4.51,8.46,6.17c9.89,3.62,12.23,7.57,12.23,12.35,0,8-5.06,12.29-14,12.29-6.73,0-12.85-3.78-15.07-9.51l6.34-2.78c2,4.39,4.78,6.28,8.73,6.28,4.39,0,6.78-1.89,6.78-5.28s-3.5-5.06-9.9-7.56c-6.17-2.39-10.78-5.4-10.78-11.18,0-6.73,5.56-11.23,12.95-11.23C438.7,24.47,444,27.8,446.37,33.53Z" transform="translate(-10 -14.45)"></path></svg>