<?xml version="1.0" encoding="UTF-8"?>
<!-- Generator: Adobe Illustrator 27.4.0, SVG Export Plug-In . SVG Version: 6.00 Build 0)  -->
<svg xmlns="http://www.w3.org/2000/svg" xmlns:xlink="http://www.w3.org/1999/xlink" version="1.1" id="Logo__x26__Tagline_RGB" x="0px" y="0px" viewBox="0 0 236 158" style="enable-background:new 0 0 236 158;" xml:space="preserve">
<style type="text/css">
	.st0{fill:#FFFFFF;}
</style>
<g>
	<g>
		<polygon class="st0" points="62.3,14.4 47.8,51.9 33.1,14.4 21.4,14.4 10.2,74.4 22.2,74.4 29.3,36.9 43.2,74.4 52.2,74.4     66.1,36.9 73.2,74.4 85.6,74.4 73.9,14.4   "></polygon>
		<rect x="88.6" y="14.4" class="st0" width="11.2" height="60"></rect>
		<polygon class="st0" points="103.5,14.4 103.5,24.2 116.7,24.2 116.7,74.4 127.8,74.4 127.8,24.2 141,24.2 141,14.4   "></polygon>
		<path class="st0" d="M156,74.4h-11.2v-60h26.7c1.1,0,2.9,0.4,5.4,1.1c2.5,0.7,5,2.4,7.5,4.9c2.5,2.6,3.7,6.3,3.7,11.2    c0,5.1-1.3,9-4,11.6c-2.7,2.7-5.4,4.3-8.2,5c-2.7,0.8-4.8,1.1-6.1,1.1l20,25h-13.5l-18.3-24.8V38.9l11.2-0.1h0.6    c1.5,0,3.1-0.6,4.6-1.7c1.7-1.3,2.5-3.1,2.5-5.4c0-2.1-0.7-3.8-2.1-5.2c-1.4-1.3-3.3-2-5.7-2H156V74.4z"></path>
		<polygon class="st0" points="189.7,14.4 224.4,14.4 224.4,24.2 201,24.2 201,39.6 224.2,39.6 224.2,49.3 201,49.3 201,64.7     224.4,64.7 224.4,74.4 189.7,74.4   "></polygon>
	</g>
	<g>
		<g>
			<path class="st0" d="M230.4,129.5c0,1.6-1.2,2.5-2.5,2.5c-1.4,0-2.5-1.1-2.5-2.4c0-1.8,1.4-2.5,2.5-2.5     C229.3,127.1,230.4,128.2,230.4,129.5z M227.9,131.5c1.1,0,1.9-0.8,1.9-2c0-1.1-0.8-2-1.9-2c-1,0-1.9,0.8-1.9,2     C226,130.7,226.8,131.5,227.9,131.5z M227.9,128.2c0.7,0,1.1,0.2,1.1,0.8c0,0.5-0.2,0.7-0.7,0.7l0.7,1.2h-0.6l-0.6-1.1h-0.3v1.1     h-0.6v-2.7H227.9z M228,129.3c0.3,0,0.4-0.1,0.4-0.4c0-0.2-0.1-0.3-0.4-0.3h-0.5v0.7H228z"></path>
		</g>
		<g>
			<path class="st0" d="M21.9,107.8l-2.9,0.9c-0.5-1.4-1.6-2.1-2.9-2.1c-1.5,0-2.3,0.6-2.3,1.8s1.6,1.8,3.5,2.5c4.1,1.5,5,3.1,5,5.1     c0,3.3-2.1,5-5.7,5c-2.8,0-5.3-1.5-6.2-3.9l2.6-1.1c0.8,1.8,2,2.6,3.6,2.6c1.8,0,2.8-0.8,2.8-2.2s-1.4-2.1-4.1-3.1     c-2.5-1-4.4-2.2-4.4-4.6c0-2.8,2.3-4.6,5.3-4.6C18.8,104.1,20.9,105.4,21.9,107.8z"></path>
			<path class="st0" d="M37.8,112.5c0,5.4-2.5,8.5-6.9,8.5s-6.9-3.1-6.9-8.5c0-5.4,2.5-8.5,6.9-8.5S37.8,107.1,37.8,112.5z      M30.9,118.3c2.6,0,3.8-1.9,3.8-5.8c0-3.9-1.2-5.8-3.8-5.8c-2.5,0-3.7,1.8-3.7,6C27.1,116.5,28.3,118.3,30.9,118.3z"></path>
			<path class="st0" d="M43.3,104.3v13.8h7.2v2.6H40.2v-16.5H43.3z"></path>
			<path class="st0" d="M52.6,104.3l2.9,12.1h0l3.1-12.1h3.1l-4.4,16.5h-3.5l-4.4-16.5H52.6z"></path>
			<path class="st0" d="M67.2,104.3v16.5H64v-16.5H67.2z"></path>
			<path class="st0" d="M73.9,104.3l6.5,11.2h0v-11.2h3v16.5h-3L73.6,109h0v11.7h-3v-16.5H73.9z"></path>
			<path class="st0" d="M98.6,108.2l-2.9,0.8c-0.7-1.6-1.7-2.3-3.3-2.3c-2.2,0-3.5,2.1-3.5,6c0,3.5,1.3,5.7,3.5,5.7     c2,0,3.4-1.3,3.4-3.3h-3.1v-2.6h6.2v8.3h-2.3v-1.7c-1.3,1.4-2.4,1.9-4.3,1.9c-4.1,0-6.5-3.1-6.5-8.2c0-5.3,2.4-8.7,6.9-8.7     C95.5,104.1,97.7,105.5,98.6,108.2z"></path>
			<path class="st0" d="M115,104.3c3.6,0,5.7,1.6,5.7,4.9s-2.1,4.9-5.7,4.9h-3v6.7h-3.1v-16.5H115z M114.7,111.5     c1.9,0,2.9-0.6,2.9-2.3s-1-2.3-2.9-2.3h-2.6v4.7H114.7z"></path>
			<path class="st0" d="M129.6,104.3c3.2,0,5.2,1.8,5.2,5c0,2.1-1.1,3.6-3,4.1l3.6,7.3h-3.5l-3.1-6.7h-2.7v6.7H123v-16.5H129.6z      M128.5,111.5c2,0,3.1-0.6,3.1-2.3c0-1.6-1-2.3-2.6-2.3h-2.9v4.7H128.5z"></path>
			<path class="st0" d="M150.8,112.5c0,5.4-2.5,8.5-6.9,8.5c-4.4,0-6.9-3.1-6.9-8.5c0-5.4,2.5-8.5,6.9-8.5     C148.3,104.1,150.8,107.1,150.8,112.5z M143.9,118.3c2.6,0,3.8-1.9,3.8-5.8c0-3.9-1.2-5.8-3.8-5.8c-2.5,0-3.7,1.8-3.7,6     C140.1,116.5,141.3,118.3,143.9,118.3z"></path>
			<path class="st0" d="M159.4,104.3c4.4,0,5.4,2.3,5.4,4.1c0,1.6-0.6,3-2.5,3.7c2.2,0.8,2.9,1.8,2.9,4.3c0,2.9-2.2,4.4-5.9,4.4     h-6.2v-16.5H159.4z M159.5,110.8c1.3,0,2.2-0.7,2.2-2c0-1.3-0.9-2-2.2-2h-3.2v4H159.5z M159.5,118.2c1.7,0,2.5-0.8,2.5-2.4     c0-1.6-0.9-2.4-2.5-2.4h-3.2v4.8H159.5z"></path>
			<path class="st0" d="M171.4,104.3v13.8h7.2v2.6h-10.3v-16.5H171.4z"></path>
			<path class="st0" d="M191.8,104.3v2.6h-7.8v3.9h5.6v2.6h-5.6v4.6h8v2.6h-11.1v-16.5H191.8z"></path>
			<path class="st0" d="M199.1,104.3l3.2,11.5h0l3.2-11.5h4.5v16.5h-2.7v-12.9h0l-3.7,12.9h-2.4l-3.6-12.9h0v12.9h-2.7v-16.5H199.1z     "></path>
			<path class="st0" d="M224.1,107.8l-2.9,0.9c-0.5-1.4-1.6-2.1-2.9-2.1c-1.5,0-2.3,0.6-2.3,1.8s1.6,1.8,3.5,2.5     c4.1,1.5,5,3.1,5,5.1c0,3.3-2.1,5-5.7,5c-2.8,0-5.3-1.5-6.2-3.9l2.6-1.1c0.8,1.8,2,2.6,3.6,2.6c1.8,0,2.8-0.8,2.8-2.2     s-1.4-2.1-4.1-3.1c-2.5-1-4.4-2.2-4.4-4.6c0-2.8,2.3-4.6,5.3-4.6C221,104.1,223.2,105.4,224.1,107.8z"></path>
			<path class="st0" d="M21,127.1v2.6h-7.3v3.9h5.5v2.6h-5.5v7.2h-3.1v-16.5H21z"></path>
			<path class="st0" d="M35.5,135.3c0,5.4-2.5,8.5-6.9,8.5s-6.9-3.1-6.9-8.5c0-5.4,2.5-8.5,6.9-8.5S35.5,129.9,35.5,135.3z      M28.5,141.1c2.6,0,3.8-1.9,3.8-5.8c0-3.9-1.2-5.8-3.8-5.8c-2.5,0-3.7,1.8-3.7,6C24.8,139.3,26,141.1,28.5,141.1z"></path>
			<path class="st0" d="M44.1,127.1c3.2,0,5.2,1.8,5.2,5c0,2.1-1.1,3.6-3,4.1l3.6,7.3h-3.5l-3.1-6.7h-2.7v6.7h-3.1v-16.5H44.1z      M43,134.3c2,0,3.1-0.6,3.1-2.3c0-1.6-1-2.3-2.6-2.3h-2.9v4.7H43z"></path>
			<path class="st0" d="M65.7,127.1l4.7,16.5h-3.1l-0.9-3.6h-5.2l-1,3.6H57l4.7-16.5H65.7z M63.7,130.2l-1.9,7.2h3.8L63.7,130.2     L63.7,130.2z"></path>
			<path class="st0" d="M88.9,130.6l-2.9,0.9c-0.5-1.4-1.6-2.1-2.9-2.1c-1.5,0-2.3,0.6-2.3,1.8s1.6,1.8,3.5,2.5c4.1,1.5,5,3.1,5,5.1     c0,3.3-2.1,5-5.7,5c-2.8,0-5.3-1.5-6.2-3.9l2.6-1.1c0.8,1.8,2,2.6,3.6,2.6c1.8,0,2.8-0.8,2.8-2.2s-1.4-2.1-4.1-3.1     c-2.5-1-4.4-2.2-4.4-4.6c0-2.8,2.3-4.6,5.3-4.6C85.8,126.9,87.9,128.2,88.9,130.6z"></path>
			<path class="st0" d="M98.9,127.1l4.7,16.5h-3.1l-0.9-3.6h-5.2l-1,3.6h-3.1l4.7-16.5H98.9z M96.9,130.2l-1.9,7.2h3.8L96.9,130.2     L96.9,130.2z"></path>
			<path class="st0" d="M115.6,127.1v2.6h-7.3v3.9h5.5v2.6h-5.5v7.2h-3.1v-16.5H115.6z"></path>
			<path class="st0" d="M128.3,127.1v2.6h-7.8v3.9h5.6v2.6h-5.6v4.6h8v2.6h-11.1v-16.5H128.3z"></path>
			<path class="st0" d="M137.4,127.1c3.2,0,5.2,1.8,5.2,5c0,2.1-1.1,3.6-3,4.1l3.6,7.3h-3.5l-3.1-6.7h-2.7v6.7h-3.1v-16.5H137.4z      M136.3,134.3c2,0,3.1-0.6,3.1-2.3c0-1.6-1-2.3-2.6-2.3h-2.9v4.7H136.3z"></path>
			<path class="st0" d="M153.4,127.1l2.1,11.1h0l2.3-11.1h3.2l2.2,11.1h0l2.3-11.1h2.9l-3.4,16.5h-3.2l-2.4-11.7h0l-2.4,11.7h-3.2     l-3.4-16.5H153.4z"></path>
			<path class="st0" d="M183,135.3c0,5.4-2.5,8.5-6.9,8.5s-6.9-3.1-6.9-8.5c0-5.4,2.5-8.5,6.9-8.5S183,129.9,183,135.3z      M176.1,141.1c2.6,0,3.8-1.9,3.8-5.8c0-3.9-1.2-5.8-3.8-5.8c-2.5,0-3.7,1.8-3.7,6C172.3,139.3,173.5,141.1,176.1,141.1z"></path>
			<path class="st0" d="M191.6,127.1c3.2,0,5.2,1.8,5.2,5c0,2.1-1.1,3.6-3,4.1l3.6,7.3h-3.5l-3.1-6.7h-2.7v6.7H185v-16.5H191.6z      M190.5,134.3c2,0,3.1-0.6,3.1-2.3c0-1.6-1-2.3-2.6-2.3h-2.9v4.7H190.5z"></path>
			<path class="st0" d="M202.8,127.1v13.8h7.2v2.6h-10.3v-16.5H202.8z"></path>
			<path class="st0" d="M217.3,127.1c4.6,0,7.3,2.8,7.3,8.2c0,5.4-2.7,8.2-7.3,8.2h-5.5v-16.5H217.3z M217.1,140.9     c2.8,0,4.4-1.7,4.4-5.6c0-3.9-1.6-5.6-4.4-5.6H215v11.2H217.1z"></path>
		</g>
	</g>
</g>
</svg>
